# xmcd
#
# Track frame offsets: 
#        182
#        11335
#        33692
#        43592
#        57742
#        68027
#        83302
#        96202
#        107372
#        121242
#        131960
#        144385
#        156030
#        167087
#        180395
#        191877
#        204420
#        215400
#        228072
#        238690
#
# Disc length: 3386 seconds
#
# Revision: 2
# Processed by: cddbd v1.5.1PL0 Copyright (c) Steve Scherf et al.
# Submitted via: ExactAudioCopy v0.95a5
#
DISCID=0b0d3814
DTITLE=Howlin' Wolf - My Life
DYEAR=1900
DGENRE=Blues
TTITLE0=Red Rooster
TTITLE1=Moanin' At Midnight
TTITLE2=Down In The Bottom
TTITLE3=My Life
TTITLE4=Shake For Me
TTITLE5=Commit A Crime
TTITLE6=Back Door Man
TTITLE7=You'll Be Mine
TTITLE8=Highway 49
TTITLE9=Who's Been Talkin'
TTITLE10=Goin' Back Home
TTITLE11=Howlin' For My Baby
TTITLE12=Wang Dang Doodle
TTITLE13=Tell Me
TTITLE14=Country Sugar Mama
TTITLE15=Little Baby
TTITLE16=Hold Onto Your Money
TTITLE17=Spoonful
TTITLE18=Built For Comfort
TTITLE19=Goin' Down Slow
EXTD=
EXTT0=
EXTT1=
EXTT2=
EXTT3=
EXTT4=
EXTT5=
EXTT6=
EXTT7=
EXTT8=
EXTT9=
EXTT10=
EXTT11=
EXTT12=
EXTT13=
EXTT14=
EXTT15=
EXTT16=
EXTT17=
EXTT18=
EXTT19=
PLAYORDER=
